<svg xmlns="http://www.w3.org/2000/svg" viewBox="0 0 128 128" role="img" aria-label="Becca placeholder head">
  <defs>
    <radialGradient id="skin" cx="44%" cy="34%" r="70%">
      <stop offset="0%" stop-color="#ffe1c4"/>
      <stop offset="72%" stop-color="#f2a67e"/>
      <stop offset="100%" stop-color="#d97865"/>
    </radialGradient>
    <linearGradient id="hair" x1="20%" y1="10%" x2="82%" y2="96%">
      <stop offset="0%" stop-color="#43245d"/>
      <stop offset="100%" stop-color="#111827"/>
    </linearGradient>
  </defs>
  <circle cx="64" cy="64" r="61" fill="#f8fafc"/>
  <path d="M27 60c0-25 15-43 38-43 24 0 39 18 39 44v20c0 19-15 35-39 35S27 100 27 81Z" fill="url(#hair)"/>
  <circle cx="64" cy="67" r="38" fill="url(#skin)"/>
  <path d="M35 61c2-25 16-39 31-39 17 0 30 13 34 36-13-10-27-18-51-16-5 5-9 11-14 19Z" fill="url(#hair)"/>
  <circle cx="50" cy="68" r="5" fill="#172554"/>
  <circle cx="78" cy="68" r="5" fill="#172554"/>
  <path d="M51 91c8 8 19 8 27 0" fill="none" stroke="#7f1d1d" stroke-width="6" stroke-linecap="round"/>
  <path d="M43 56c7-5 14-5 20-1" fill="none" stroke="#111827" stroke-width="5" stroke-linecap="round"/>
  <path d="M70 55c7-4 14-3 19 2" fill="none" stroke="#111827" stroke-width="5" stroke-linecap="round"/>
</svg>
